# xmcd
#
# Track frame offsets: 
#        150
#        13638
#        29475
#        47555
#        60598
#        74897
#        95787
#        113770
#        128957
#        142413
#        159563
#        171624
#        188088
#        205490
#        218774
#        233385
#        250535
#        264501
#        277937
#
# Disc length: 3951 seconds
#
# Revision: 0
# Processed by: cddbd v1.5.2PL0 Copyright (c) Steve Scherf et al.
# Submitted via: ExactAudioCopy v1.3
#
DISCID=200f6d13
DTITLE=Various Artist - 100% Country 2016
DYEAR=2016
DGENRE=Country
TTITLE0=Brett Eldredge - Beat Of The Music
TTITLE1=High Valley - Make You Mine 
TTITLE2=Blake Shelton - Mine Would Be You
TTITLE3=Jana Ramer - Said No One Ever
TTITLE4=Cole Swindell - You Should Be Here
TTITLE5=Zac Brown Band - Goodbye In Her Eyes 
TTITLE6=Frankie Ballard - It All Started With A Beer
TTITLE7=William Michael Morgan - I Met A Girl
TTITLE8=Chris Janson - Buy Me A Boat 
TTITLE9=Ryan Kinder - Tonight
TTITLE10=Hunter Hayes - Everybodys Got Somebody But Me
TTITLE11=Charlie Worsham - Want Me Too
TTITLE12=Brandy Clark - Girl Next Door 
TTITLE13=Michael Ray - Think A Little Less
TTITLE14=Hunter Hayes - 21
TTITLE15=Ashley Monroe - On To Something Good
TTITLE16=The Railers - Kinda Dig The Feeling
TTITLE17=Dean Alexander - Live A Little
TTITLE18=The Farm Inc - Home Sweet Home
EXTD=
EXTT0=
EXTT1=
EXTT2=
EXTT3=
EXTT4=
EXTT5=
EXTT6=
EXTT7=
EXTT8=
EXTT9=
EXTT10=
EXTT11=
EXTT12=
EXTT13=
EXTT14=
EXTT15=
EXTT16=
EXTT17=
EXTT18=
PLAYORDER=
